<svg id="noun_allergens_3090071" xmlns="http://www.w3.org/2000/svg" width="20" height="17.804" viewBox="0 0 20 17.804">
  <path id="Path_106" data-name="Path 106" d="M18.915,54.8c-.489-1.447-1.156-1.395-1.973-1.447a1.27,1.27,0,0,1-1.09-.731c-.3-1.493-2.606-1.3-2.657-.677-.161,2.034,1.368,2.219,1.569,2.248a2.284,2.284,0,0,1,1.516,1.065.943.943,0,0,0,.116.153c.028.03.063.059.1.089l.05.044a1.662,1.662,0,0,0,.154.1l.018.01c.058.034.121.064.184.093,0,0,.008,0,.01,0h0C17.855,56.176,19.328,56.026,18.915,54.8Zm-3.729-1.988c.058.1.056.207-.005.241s-.159-.017-.217-.118-.058-.209.005-.244S15.125,52.717,15.185,52.816Zm-.348-.834c.061-.034.159.017.217.118s.058.207-.005.241-.159-.02-.217-.118S14.777,52.016,14.837,51.982ZM14.2,52.1c.061-.034.159.017.217.118s.058.207-.005.241-.159-.017-.217-.118S14.143,52.132,14.2,52.1Zm3.255,2.187c-.1-.062-.146-.16-.108-.216s.149-.054.247.01.149.16.108.216S17.56,54.348,17.459,54.284Zm.489.728c-.048.052-.156.03-.242-.049s-.116-.182-.068-.231.156-.03.242.049S18,54.963,17.948,55.012Zm.184-.812c.061-.034.159.02.217.118s.058.207-.005.241-.159-.017-.217-.118S18.069,54.235,18.132,54.2Zm.3,1.006c-.061.034-.159-.02-.217-.118s-.058-.207.005-.241.159.017.217.118S18.493,55.172,18.433,55.207Z" transform="translate(-12.267 -41.354)"/>
  <path id="Path_107" data-name="Path 107" d="M22.777,72.257a1.76,1.76,0,0,0-2.437-.379,1.3,1.3,0,0,1-1.312-.148c-.976-1.186-2.929.039-2.675.613a1.87,1.87,0,0,0,2.468,1.272,2.337,2.337,0,0,1,1.852.248.96.96,0,0,0,.177.081.727.727,0,0,0,.126.032c.023,0,.043.012.068.017a1.546,1.546,0,0,0,.187.02l.02,0a1.936,1.936,0,0,0,.207,0h.01C22.5,73.954,23.728,73.15,22.777,72.257Zm-1.514-.042c.116.01.207.074.2.143s-.106.116-.225.106-.207-.074-.2-.143S21.147,72.205,21.263,72.215ZM18.275,72.2c.038-.059.149-.057.25,0s.149.157.111.216-.149.057-.247,0S18.237,72.257,18.275,72.2Zm-.459-.576c.038-.059.149-.057.247,0s.151.157.114.216-.149.057-.247,0S17.778,71.681,17.816,71.622Zm-.5.394c.038-.059.149-.057.25,0s.149.157.111.216-.149.057-.247,0S17.276,72.075,17.314,72.016Zm4.469.935c-.114-.03-.192-.106-.172-.175s.126-.1.24-.066.192.108.172.175S21.9,72.98,21.783,72.951Zm.373-.647c-.038.059-.149.057-.247,0s-.151-.157-.114-.216.149-.057.247,0S22.191,72.245,22.156,72.3Zm.386.531c-.038.059-.149.057-.25,0s-.149-.157-.114-.216.149-.057.247,0S22.58,72.776,22.542,72.835Z" transform="translate(-14.62 -56.244)"/>
  <path id="Path_108" data-name="Path 108" d="M81.1,25.79a.847.847,0,0,1-1.019.531.745.745,0,0,1-.414-1.009c.167-.426,1.3-1.233,1.3-1.233A4.789,4.789,0,0,1,81.1,25.79Z" transform="translate(-61.932 -20.692)"/>
  <path id="Path_109" data-name="Path 109" d="M81.861,34.022a.886.886,0,0,1-1.171.032.727.727,0,0,1,.146-1.07,5.951,5.951,0,0,1,1.774-.534A5,5,0,0,1,81.861,34.022Z" transform="translate(-62.61 -27.003)"/>
  <path id="Path_110" data-name="Path 110" d="M75.063,29.335a.76.76,0,0,1-.54.957.826.826,0,0,1-.944-.637,4.838,4.838,0,0,1,.356-1.685A5.293,5.293,0,0,1,75.063,29.335Z" transform="translate(-57.412 -23.626)"/>
  <path id="Path_111" data-name="Path 111" d="M79.1,41.912a.879.879,0,0,1-1.153-.189.741.741,0,0,1,.378-1.021,6.113,6.113,0,0,1,1.855-.189A5.173,5.173,0,0,1,79.1,41.912Z" transform="translate(-60.62 -33.08)"/>
  <path id="Path_112" data-name="Path 112" d="M72.844,36.661a.743.743,0,0,1-.384,1.018.848.848,0,0,1-1.034-.5,4.8,4.8,0,0,1,.086-1.715S72.665,36.24,72.844,36.661Z" transform="translate(-55.768 -29.273)"/>
  <path id="Path_113" data-name="Path 113" d="M76.559,48.522a.879.879,0,0,1-1.153-.189.741.741,0,0,1,.378-1.021,6.113,6.113,0,0,1,1.854-.189A5.173,5.173,0,0,1,76.559,48.522Z" transform="translate(-58.721 -38.064)"/>
  <path id="Path_114" data-name="Path 114" d="M70.3,43.271a.743.743,0,0,1-.384,1.018.848.848,0,0,1-1.034-.5,4.8,4.8,0,0,1,.086-1.715S70.125,42.85,70.3,43.271Z" transform="translate(-53.869 -34.257)"/>
  <path id="Path_115" data-name="Path 115" d="M74.089,54.962a.879.879,0,0,1-1.153-.189.741.741,0,0,1,.378-1.021,6.113,6.113,0,0,1,1.855-.189A5.265,5.265,0,0,1,74.089,54.962Z" transform="translate(-56.874 -42.92)"/>
  <path id="Path_116" data-name="Path 116" d="M67.834,49.7a.743.743,0,0,1-.383,1.018.848.848,0,0,1-1.035-.5A4.8,4.8,0,0,1,66.5,48.5S67.652,49.28,67.834,49.7Z" transform="translate(-52.022 -39.105)"/>
  <path id="Path_117" data-name="Path 117" d="M40.095,12.02a.838.838,0,0,0,1.009.531.747.747,0,0,0,.409-1.009c-.167-.426-1.282-1.232-1.282-1.232A4.849,4.849,0,0,0,40.095,12.02Z" transform="translate(-32.352 -10.31)"/>
  <path id="Path_118" data-name="Path 118" d="M37.729,20.252a.869.869,0,0,0,1.158.032.733.733,0,0,0-.144-1.07,5.825,5.825,0,0,0-1.754-.534A5.036,5.036,0,0,0,37.729,20.252Z" transform="translate(-30.068 -16.621)"/>
  <path id="Path_119" data-name="Path 119" d="M46.12,15.565a.759.759,0,0,0,.535.957.818.818,0,0,0,.934-.637,4.848,4.848,0,0,0-.353-1.685S46.228,15.125,46.12,15.565Z" transform="translate(-36.873 -13.243)"/>
  <path id="Path_120" data-name="Path 120" d="M39.78,28.141a.863.863,0,0,0,1.14-.189.743.743,0,0,0-.376-1.021,5.9,5.9,0,0,0-1.834-.189A5.192,5.192,0,0,0,39.78,28.141Z" transform="translate(-31.354 -22.697)"/>
  <path id="Path_121" data-name="Path 121" d="M48.243,22.891a.747.747,0,0,0,.378,1.018.838.838,0,0,0,1.024-.5,4.855,4.855,0,0,0-.086-1.715S48.419,22.47,48.243,22.891Z" transform="translate(-38.429 -18.89)"/>
  <path id="Path_122" data-name="Path 122" d="M42.29,34.762a.863.863,0,0,0,1.14-.189.743.743,0,0,0-.376-1.021,5.982,5.982,0,0,0-1.834-.189A5.23,5.23,0,0,0,42.29,34.762Z" transform="translate(-33.23 -27.689)"/>
  <path id="Path_123" data-name="Path 123" d="M50.753,29.5a.747.747,0,0,0,.378,1.018.838.838,0,0,0,1.024-.5A4.855,4.855,0,0,0,52.07,28.3S50.932,29.08,50.753,29.5Z" transform="translate(-40.305 -23.874)"/>
  <path id="Path_124" data-name="Path 124" d="M44.74,41.192A.863.863,0,0,0,45.88,41a.743.743,0,0,0-.376-1.021,5.982,5.982,0,0,0-1.834-.189A5.192,5.192,0,0,0,44.74,41.192Z" transform="translate(-35.062 -32.537)"/>
  <path id="Path_125" data-name="Path 125" d="M53.2,35.931a.747.747,0,0,0,.378,1.018.839.839,0,0,0,1.024-.5,4.855,4.855,0,0,0-.086-1.715S53.379,35.51,53.2,35.931Z" transform="translate(-42.137 -28.722)"/>
  <path id="Path_126" data-name="Path 126" d="M42.39,47.509a.408.408,0,0,0-.537.192,16.664,16.664,0,0,0-1.342,4.657A22.453,22.453,0,0,0,38.247,44.3a.409.409,0,0,0-.545-.165.389.389,0,0,0-.169.531,21.03,21.03,0,0,1,1.532,4.106A6.945,6.945,0,0,0,34.2,45.33c-4.832-.854,1.259-.123,3.177,2.435a19.07,19.07,0,0,1,2.248,3.884c.063.5.108,1.021.129,1.552a.4.4,0,0,0,.4.379h.015a.4.4,0,0,0,.346-.229.393.393,0,0,0,.305.17h.02a.4.4,0,0,0,.4-.374,15.649,15.649,0,0,1,1.335-5.117A.382.382,0,0,0,42.39,47.509Z" transform="translate(-26.619 -35.777)"/>
  <path id="Path_127" data-name="Path 127" d="M15.43,17.952c-.426-1.734-3.1-3.884-3.971-3.683s-2.251,3.3-1.824,5.038A2.771,2.771,0,0,0,13.2,21.332,2.7,2.7,0,0,0,15.43,17.952Zm-4.683,1.1c.187,1.882-1.38-1.764.447-2.8A4.4,4.4,0,0,0,10.747,19.054Z" transform="translate(-9.554 -13.286)"/>
</svg>
