<svg xmlns="http://www.w3.org/2000/svg" width="19.996" height="20" viewBox="0 0 19.996 20">
  <g id="instagram" transform="translate(-0.449)">
    <path id="Path_2" data-name="Path 2" d="M20.394,5.88a7.308,7.308,0,0,0-.465-2.426A5.123,5.123,0,0,0,17,.527,7.327,7.327,0,0,0,14.576.063C13.506.012,13.166,0,10.451,0S7.4.012,6.329.059A7.31,7.31,0,0,0,3.9.524,4.88,4.88,0,0,0,2.129,1.68,4.924,4.924,0,0,0,.976,3.45,7.328,7.328,0,0,0,.511,5.876C.46,6.947.449,7.287.449,10s.012,3.055.059,4.122A7.308,7.308,0,0,0,.972,16.55,5.122,5.122,0,0,0,3.9,19.477a7.328,7.328,0,0,0,2.426.465c1.066.047,1.407.059,4.122.059s3.055-.012,4.122-.059a7.306,7.306,0,0,0,2.426-.465,5.116,5.116,0,0,0,2.926-2.926,7.333,7.333,0,0,0,.465-2.426c.047-1.067.059-1.407.059-4.122s0-3.055-.051-4.122Zm-1.8,8.166a5.482,5.482,0,0,1-.344,1.856,3.318,3.318,0,0,1-1.9,1.9,5.5,5.5,0,0,1-1.856.344c-1.055.047-1.371.059-4.04.059s-2.989-.012-4.04-.059A5.479,5.479,0,0,1,4.559,17.8a3.078,3.078,0,0,1-1.149-.746,3.109,3.109,0,0,1-.746-1.149A5.5,5.5,0,0,1,2.32,14.05c-.047-1.055-.059-1.371-.059-4.04s.012-2.989.059-4.04a5.479,5.479,0,0,1,.344-1.856,3.04,3.04,0,0,1,.75-1.149,3.1,3.1,0,0,1,1.149-.746,5.505,5.505,0,0,1,1.856-.344c1.055-.047,1.371-.059,4.04-.059s2.989.012,4.04.059a5.482,5.482,0,0,1,1.856.344,3.075,3.075,0,0,1,1.149.746,3.109,3.109,0,0,1,.746,1.149,5.5,5.5,0,0,1,.344,1.856c.047,1.055.059,1.371.059,4.04s-.012,2.981-.059,4.036Zm0,0" transform="translate(0 0)" fill="#707070"/>
    <path id="Path_3" data-name="Path 3" d="M130.087,124.5a5.138,5.138,0,1,0,5.138,5.138A5.139,5.139,0,0,0,130.087,124.5Zm0,8.47a3.333,3.333,0,1,1,3.333-3.333A3.333,3.333,0,0,1,130.087,132.97Zm0,0" transform="translate(-119.636 -119.636)" fill="#707070"/>
    <path id="Path_4" data-name="Path 4" d="M364.849,89.8a1.2,1.2,0,1,1-1.2-1.2A1.2,1.2,0,0,1,364.849,89.8Zm0,0" transform="translate(-347.858 -85.14)" fill="#707070"/>
  </g>
</svg>
