<svg xmlns="http://www.w3.org/2000/svg" width="100" height="56.93" viewBox="0 0 100 56.93">
  <g id="Logo-Pagaia" transform="translate(-0.021 0.011)">
    <path id="Path_1" data-name="Path 1" d="M99.506,26.477c-.168-.066-14.476-5.75-38.054-7.226L72.846,3.414l1.344.963a.827.827,0,0,0,.965-1.344L71.132.144a.827.827,0,0,0-.963,1.344l1.344.965L59.5,19.134c-2.951-.153-6.039-.239-9.256-.239C19.846,18.9.73,26.261.54,26.334a.825.825,0,0,0,0,1.533c.187.076,18.516,7.367,47.051,7.837l-4.6,6.4a2.922,2.922,0,0,0-1.489-.121c-3.288.565-7.137,6.049-9.214,9.005l-.425.591a.739.739,0,0,0,.254,1.059h0a.722.722,0,0,0,1.074-.089l.375-.536c1.66-2.364,5.522-7.864,8.133-8.315a1.211,1.211,0,0,1,.133,0L34.6,53.751a.827.827,0,1,0,1.344.965l7.256-10.1a.644.644,0,0,1,.04.133c.413,2.521-3.292,7.617-5.107,10.112-.235.324-.413.568-.591.817a.736.736,0,0,0,.259,1.054h0a.731.731,0,0,0,1.082-.1c.168-.245.316-.439.546-.756,2.9-3.989,5.955-8.494,5.475-11.445a2.951,2.951,0,0,0-.588-1.366L49.6,35.726h.875c30.183,0,48.857-7.647,49.042-7.73a.825.825,0,0,0-.008-1.526m-49.033,7.6c-24.095,0-41.315-5-47.151-6.962,5.77-1.864,22.717-6.567,46.925-6.567,24.083,0,40.86,4.814,46.531,6.71-5.628,1.934-22.248,6.826-46.3,6.826Z" transform="translate(0 0)" fill="#4e3227" fill-rule="evenodd"/>
    <path id="Path_2" data-name="Path 2" d="M392.3,141.772a.762.762,0,0,1-.748-.823v-8.793a.753.753,0,1,1,1.5,0v8.793a.763.763,0,0,1-.751.823" transform="translate(-325.738 -109.27)" fill="#4e3227" fill-rule="evenodd"/>
    <path id="Path_3" data-name="Path 3" d="M249.085,138.6a.841.841,0,0,1-.264-.044,7.394,7.394,0,0,1-2.905-1.961,6.158,6.158,0,0,1-.5-6.989,5.982,5.982,0,0,1,4.766-2.964,7.072,7.072,0,0,1,5.713,2.055.824.824,0,0,1-1.254,1.07,5.438,5.438,0,0,0-4.307-1.48,4.334,4.334,0,0,0-3.488,2.156,4.5,4.5,0,0,0,.336,5.07,5.5,5.5,0,0,0,1.655,1.25l2.956-3.729-3.3-.039a.822.822,0,0,1-.815-.84.8.8,0,0,1,.84-.815l4.982.057a.825.825,0,0,1,.637,1.344l-4.392,5.545a.825.825,0,0,1-.647.313" transform="translate(-203.446 -105.353)" fill="#4e3227" fill-rule="evenodd"/>
    <path id="Path_4" data-name="Path 4" d="M135.333,145.887c-.455,0-1.008-.37-1.008-.823v-6.322a.786.786,0,0,1,.635-.812c.336-.057,3.613-.524,5.149.763a2.589,2.589,0,0,1,.909,2.057,2.561,2.561,0,0,1-.808,1.921,6.055,6.055,0,0,1-3.885,1.139v1.25c0,.454-.544.823-1,.823m1-3.727a4.567,4.567,0,0,0,2.754-.692.907.907,0,0,0,.287-.718.938.938,0,0,0-.318-.793,4.489,4.489,0,0,0-2.724-.481Z" transform="translate(-111.735 -114.654)" fill="#4e3227" fill-rule="evenodd"/>
    <path id="Path_5" data-name="Path 5" d="M186.651,140.414l-4.463-9.39a.823.823,0,0,0-1.445-.077l-5.233,8.5a.818.818,0,1,0,1.4.84l1.45-2.376h5.276s.01.017.017.017l1.5,3.174a.827.827,0,0,0,.746.477.852.852,0,0,0,.353-.077.825.825,0,0,0,.392-1.1m-7.172-4.235,1.872-3.045,1.445,3.045Z" transform="translate(-145.89 -108.625)" fill="#4e3227" fill-rule="evenodd"/>
    <path id="Path_6" data-name="Path 6" d="M311.886,137.972l-5.11-9.723a.823.823,0,0,0-1.4-.1l-7.342,10.17a.824.824,0,0,0,1.336.965l2.611-3.636c.02,0,.04-.012.061-.012h6.779l1.61,3.083a.83.83,0,0,0,1.112.356.815.815,0,0,0,.348-1.1m-8.605-4.082,2.647-3.668,1.929,3.668Z" transform="translate(-247.809 -106.341)" fill="#4e3227" fill-rule="evenodd"/>
    <path id="Path_7" data-name="Path 7" d="M419.355,143.125l-4.176-6.537a.84.84,0,0,0-.724-.38.827.827,0,0,0-.7.432l-4.184,7.718a.823.823,0,0,0,.724,1.217.84.84,0,0,0,.724-.452l1.344-2.5H417.1l.862,1.368a.825.825,0,0,0,1.138.26.811.811,0,0,0,.25-1.128m-6-2.247,1.19-2.2,1.406,2.2Z" transform="translate(-340.651 -113.329)" fill="#4e3227" fill-rule="evenodd"/>
  </g>
</svg>
