<svg xmlns="http://www.w3.org/2000/svg" width="200" height="113.86" viewBox="0 0 200 113.86">
  <g id="Logo-Pagaia" transform="translate(-0.021 0.011)">
    <path id="Path_5" data-name="Path 5" d="M198.99,52.965c-.336-.131-28.953-11.5-76.108-14.451L145.672,6.839l2.689,1.926a1.655,1.655,0,0,0,1.929-2.689L142.244.3a1.654,1.654,0,0,0-1.926,2.689l2.689,1.929L118.984,38.279c-5.9-.306-12.079-.477-18.511-.477-60.8,0-99.035,14.73-99.414,14.878a1.65,1.65,0,0,0,0,3.065c.373.151,37.032,14.734,94.1,15.675l-9.205,12.8a5.844,5.844,0,0,0-2.978-.242C76.4,85.1,68.7,96.074,64.55,101.985l-.85,1.183a1.478,1.478,0,0,0,.507,2.117h0a1.444,1.444,0,0,0,2.148-.178l.749-1.072c3.32-4.729,11.043-15.728,16.266-16.629a2.423,2.423,0,0,1,.265,0L69.185,107.514a1.655,1.655,0,0,0,2.689,1.929l14.512-20.2a1.288,1.288,0,0,1,.081.265c.827,5.041-6.584,15.234-10.213,20.225-.47.649-.827,1.136-1.183,1.633a1.473,1.473,0,0,0,.518,2.107h0a1.461,1.461,0,0,0,2.164-.2c.336-.491.632-.877,1.092-1.512,5.807-7.978,11.911-16.989,10.949-22.89a5.9,5.9,0,0,0-1.176-2.732l10.556-14.67h1.751c60.366,0,97.714-15.295,98.084-15.459a1.65,1.65,0,0,0-.017-3.052m-98.067,15.2c-48.19,0-82.631-9.995-94.3-13.924C18.162,50.505,52.055,41.1,100.47,41.1c48.166,0,81.72,9.629,93.063,13.419-11.255,3.868-44.5,13.651-92.609,13.651Z" transform="translate(0 0)" fill="#fff" fill-rule="evenodd"/>
    <path id="Path_6" data-name="Path 6" d="M393.045,152.214a1.523,1.523,0,0,1-1.5-1.647V132.98a1.506,1.506,0,1,1,3,0v17.587a1.526,1.526,0,0,1-1.5,1.647" transform="translate(-259.946 -87.2)" fill="#fff" fill-rule="evenodd"/>
    <path id="Path_7" data-name="Path 7" d="M253.612,150.587a1.677,1.677,0,0,1-.528-.087,14.786,14.786,0,0,1-5.811-3.922,12.316,12.316,0,0,1-1.008-13.977,11.964,11.964,0,0,1,9.531-5.928c4.369-.366,9.04,1.317,11.426,4.11a1.648,1.648,0,1,1-2.507,2.141c-1.422-1.68-4.92-3.277-8.614-2.961a8.668,8.668,0,0,0-6.977,4.312,9.008,9.008,0,0,0,.672,10.139,11,11,0,0,0,3.31,2.5l5.912-7.457-6.6-.077a1.643,1.643,0,0,1-1.63-1.68,1.6,1.6,0,0,1,1.68-1.63l9.965.114a1.65,1.65,0,0,1,1.274,2.689l-8.785,11.091a1.65,1.65,0,0,1-1.294.625" transform="translate(-162.354 -84.074)" fill="#fff" fill-rule="evenodd"/>
    <path id="Path_8" data-name="Path 8" d="M136.342,153.973c-.911,0-2.016-.739-2.016-1.647V139.683a1.573,1.573,0,0,1,1.27-1.623c.672-.114,7.226-1.049,10.3,1.526a5.179,5.179,0,0,1,1.818,4.114,5.121,5.121,0,0,1-1.617,3.841c-2.255,2.114-6.275,2.3-7.77,2.279v2.5c0,.907-1.089,1.647-2,1.647m2-7.454c1.5,0,4.245-.2,5.508-1.385a1.815,1.815,0,0,0,.575-1.435,1.875,1.875,0,0,0-.635-1.586c-1.213-1.008-3.952-1.086-5.448-.961Z" transform="translate(-89.167 -91.497)" fill="#fff" fill-rule="evenodd"/>
    <path id="Path_9" data-name="Path 9" d="M197.925,150.274,189,131.494a1.647,1.647,0,0,0-2.89-.155l-10.465,17.009a1.637,1.637,0,1,0,2.806,1.68l2.9-4.752H191.9s.02.034.034.034l3.008,6.348a1.654,1.654,0,0,0,1.492.954,1.7,1.7,0,0,0,.706-.155,1.65,1.65,0,0,0,.783-2.195m-14.344-8.469,3.744-6.09,2.89,6.09Z" transform="translate(-116.424 -86.686)" fill="#fff" fill-rule="evenodd"/>
    <path id="Path_10" data-name="Path 10" d="M325.89,148.135,315.67,128.69a1.647,1.647,0,0,0-2.793-.2l-14.683,20.339a1.648,1.648,0,0,0,2.672,1.929l5.223-7.273c.04,0,.081-.023.121-.023h13.557l3.22,6.167a1.66,1.66,0,0,0,2.225.713,1.63,1.63,0,0,0,.7-2.208m-17.21-8.163,5.293-7.336,3.858,7.336Z" transform="translate(-197.757 -84.863)" fill="#fff" fill-rule="evenodd"/>
    <path id="Path_11" data-name="Path 11" d="M429.235,150.042l-8.352-13.073a1.68,1.68,0,0,0-1.448-.76,1.653,1.653,0,0,0-1.391.864l-8.368,15.436a1.647,1.647,0,0,0,1.448,2.433,1.681,1.681,0,0,0,1.449-.9l2.688-5h9.471l1.724,2.736a1.65,1.65,0,0,0,2.275.521,1.624,1.624,0,0,0,.5-2.255m-12-4.493,2.38-4.393,2.813,4.393Z" transform="translate(-271.847 -90.439)" fill="#fff" fill-rule="evenodd"/>
  </g>
</svg>
